<?xml version="1.0" encoding="utf-8"?>
<!-- Generator: Adobe Illustrator 15.0.0, SVG Export Plug-In . SVG Version: 6.00 Build 0)  -->
<!DOCTYPE svg PUBLIC "-//W3C//DTD SVG 1.1//EN" "http://www.w3.org/Graphics/SVG/1.1/DTD/svg11.dtd">
<svg version="1.1" id="Layer_1" xmlns="http://www.w3.org/2000/svg" xmlns:xlink="http://www.w3.org/1999/xlink" x="0px" y="0px"
	 width="187px" height="49.35px" viewBox="0 0 187 49.35" enable-background="new 0 0 187 49.35" xml:space="preserve">
<path fill="#6A9FB5" d="M12.51,5.457C9.197,18.709,7.725,25.611,6.481,31.642c-0.184,0.826-0.874,1.195-1.564,1.195
	c-0.921,0-1.933-0.644-1.933-1.796c0-1.472,2.025-14.127,5.016-24.985c0.23-0.782,0.828-1.381,1.657-1.75
	C8.276,4.168,6.896,4.123,5.515,4.123c-1.289,0-2.531,0.183-3.773,0.183c-0.552,0-0.782-0.322-0.782-0.735
	c0-1.058,1.197-2.809,2.208-2.946c1.243-0.186,2.577-0.229,3.958-0.229c2.393,0,4.877,0.184,7.179,0.184
	c1.426,0,9.483-0.552,10.68-0.552c0.782,0,1.15,0.921,1.15,1.933c0,1.059-0.414,2.162-1.288,2.302
	c-0.691,0.137-1.473,0.182-2.255,0.182c-1.058,0-8.931,0.185-10.127,0.093C12.602,4.767,12.602,5.182,12.51,5.457z M64.721,23.36
	c0,0.184-0.048,0.413-0.139,0.643c-2.071,5.154-5.292,9.204-10.583,9.204c-3.67,0-5.318-3.089-5.54-7.023
	c-2.248,4.49-5.339,7.159-11.167,7.159c-2.117,0-3.359-0.459-4.051-1.01c-1.196,5.476-2.162,10.308-2.3,11.962
	c-0.092,1.106-0.874,1.382-1.703,1.382c-0.966,0-1.979-0.508-1.979-1.979c0-0.842,1.429-8.362,3.009-16.002
	c-1.376,2.307-2.94,4.061-4.53,5.463c-2.07,10.906-5.521,14.911-9.157,14.911c-2.254,0-4.693-1.98-4.693-4.512
	c0-5.061,4.878-6.946,9.525-9.799c0.185-1.383,0.415-2.899,0.69-4.511c-1.196,2.485-2.761,3.91-4.693,3.91
	c-2.761,0-3.682-1.933-3.682-4.831c0-4.647,2.3-11.733,3.313-17.394c0.138-0.921,0.828-1.288,1.656-1.288
	c1.197,0,2.577,0.874,2.577,2.025c0,1.611-0.736,3.958-1.289,6.442c-0.92,4.05-1.886,8.375-1.886,10.17
	c0,1.104,0.276,1.748,0.966,1.748c2.485,0,3.405-5.338,5.43-13.207c0.736-3.451,1.289-5.891,1.289-5.891
	c0.184-0.784,0.92-1.151,1.702-1.151c1.151,0,2.438,0.737,2.438,1.795c0,1.241-0.736,1.748-3.681,18.636
	c1.819-1.683,3.502-3.771,4.874-6.575c0.996-4.673,1.961-8.938,2.583-11.188c0.322-1.151,1.243-1.655,2.117-1.655
	c1.012,0,1.979,0.645,1.979,1.748c0,0.185,0,0.322-0.369,1.84c1.334-2.899,2.99-4.924,4.969-4.924c2.808,0,3.958,2.714,3.958,6.028
	c0,5.43-2.899,12.978-6.718,16.153c4.184-0.919,6.668-3.539,8.876-8.088c0.566-6.54,4.261-14.048,8.705-14.048
	c1.012,0,2.07,0.322,2.623,0.785c1.932,0.229,2.808,1.977,2.808,4.231c0,4.421-3.313,10.633-8.191,10.633
	c-0.553,0-1.152-0.093-1.75-0.279c0,2.027,0.184,5.524,3.037,5.524c4.373,0,6.72-4.971,7.916-6.857
	c0.275-0.462,0.506-0.644,0.736-0.644C64.582,22.899,64.721,23.081,64.721,23.36z M52.802,23.634
	c0.138,0.047,0.229,0.047,0.368,0.047c2.714,0,6.627-7.271,6.627-10.862c0-0.733-0.092-1.518-0.783-1.518
	C56.391,11.301,53.354,18.113,52.802,23.634z M21.046,36.612c-3.268,2.07-7.226,4.28-7.226,7.96c0,1.012,0.552,1.611,1.243,2.026
	c0.138,0.044,0.276,0.044,0.459,0.044C19.85,46.643,20.677,39.648,21.046,36.612z M41.895,15.396c0-1.655-0.369-2.622-1.196-2.622
	c-1.796,0-3.821,4.51-5.339,10.4l-1.518,6.671c0.505,0,1.104,0.277,1.749,1.06C38.719,30.353,41.895,20.32,41.895,15.396z
	 M147.196,9.626c2.9,0,4.788-2.439,4.788-4.373c0-1.289-0.83-2.392-2.714-2.392c-2.533,0-4.145,2.577-4.145,4.555
	C145.125,8.612,145.771,9.626,147.196,9.626z M186.96,24.544c0,0.187-0.092,0.461-0.187,0.738c-1.656,4.094-4.142,6.903-6.719,9.019
	c-1.887,9.02-4.924,15.049-9.34,15.049c-2.622,0-4.696-1.98-4.696-4.512c0-4.877,4.972-7.317,9.759-10.216l1.288-6.489
	c-1.611,3.868-3.682,6.306-5.386,6.306c-2.481,0-3.543-2.669-3.543-6.258c0-0.082,0.003-0.166,0.004-0.249
	c-1.427,2.844-3.915,6.646-6.726,6.646c-1.84,0-3.587-1.289-3.587-4.05c0-4.143,4.417-12.472,4.417-15.554
	c0-0.599-0.229-1.106-0.738-1.106c-1.7,0-5.75,7.133-7.545,15.463l-0.14,0.323c-0.228,1.289-0.411,2.391-0.551,3.404
	c-0.184,1.013-1.013,1.52-1.887,1.52c-0.966,0-2.023-0.692-2.023-2.072c0-0.138,0.044-0.274,0.044-0.415
	c0.116-0.969,0.238-1.89,0.366-2.782c-1.277,2.49-3.141,5.13-5.426,5.13c-1.795,0-3.314-1.288-3.314-4.739
	c0-0.181,0.008-0.388,0.022-0.615c-1.219,2.656-3.02,5.354-5.959,5.354c-1.843,0-2.9-1.979-2.9-4.739c0-0.139,0-0.415,0.044-0.69
	c-1.564,3.359-3.403,5.43-4.968,5.43c-2.485,0-3.543-2.669-3.543-6.258c0-0.037,0.002-0.075,0.002-0.112
	c-1.301,2.76-3.443,6.37-5.895,6.37c-1.428,0-3.131-0.782-3.131-4.233c0-0.229,0-0.551,0.047-0.874
	c-1.52,3.129-3.268,5.107-4.739,5.107c-2.485,0-3.543-2.669-3.543-6.258c0-0.11,0.004-0.225,0.006-0.337
	c-2.063,3.87-5.021,6.643-9.395,6.643c-3.958,0-5.569-3.591-5.569-7.963c0-1.424,0.179-2.935,0.493-4.436
	c-0.881,0.126-2.127,0.238-3.901,0.34l-2.348,10.999c-0.183,0.736-0.782,1.06-1.472,1.06c-0.921,0-1.979-0.692-1.979-1.796
	c0-1.152,0.965-6.626,1.611-10.078c-1.749,0.044-3.635,0.092-5.568,0.092c-1.149,4.875-2.071,9.019-2.3,10.629
	c-0.093,0.737-0.783,1.059-1.518,1.059c-1.014,0-2.118-0.599-2.118-1.702c0-2.485,1.242-6.305-2.854-10.169l-2.438-0.186
	c-1.242-0.093-1.886-0.736-1.886-1.382c0-0.687,0.689-1.377,1.979-1.377c1.196,0,2.254,0.459,3.13,1.241
	c1.379,0.047,2.76,0.047,4.095,0.047c1.058-5.66,2.485-11.965,4.555-17.856c0.322-0.874,1.058-1.243,1.886-1.243
	c1.151,0,2.348,0.737,2.348,1.565c0,0.874-2.762,9.156-4.418,17.442l5.476-0.278c1.104-5.475,2.531-11.365,4.372-17.715
	c0.23-0.736,1.104-1.058,1.979-1.058c1.104,0,2.254,0.506,2.254,1.425c0,0.967-2.76,9.526-4.28,17.12
	c1.059-0.046,1.98-0.093,2.762-0.093c0.408,0,0.773,0.02,1.097,0.055c1.455-5.015,4.422-9.444,7.833-9.444
	c1.013,0,2.07,0.321,2.623,0.784c1.933,0.229,2.807,1.977,2.807,4.231c0,4.42-3.314,10.631-8.19,10.631
	c-0.553,0-1.149-0.094-1.75-0.278c0,2.025,0.186,5.519,3.038,5.519c4.365,0,6.712-4.962,7.909-6.853
	c0.982-6.545,4.578-14.06,9.071-14.06c1.843,0,2.992,2.38,3.084,3.38h0.275c1.152,0,2.533,0.993,2.533,2.695
	c0,0.229,0,0.485-0.048,0.717c-1.241,5.843-2.853,10.815-2.853,13.021c0,0.692,0.231,1.151,0.646,1.151
	c0.964,0,2.388-2.437,4.549-6.892c0.982-6.545,4.579-14.047,9.072-14.047c1.244,0,1.979,1.106,2.394,2.21
	c0.966-4.325,2.022-8.467,2.713-10.999c0.184-0.689,0.785-1.011,1.473-1.011c1.152,0,2.533,0.921,2.533,2.622
	c0,2.991-6.213,20.802-6.213,26.14c0,1.241,0.276,1.932,0.919,1.932c1.587,0,3.485-4.191,4.729-6.735
	c0.665-3.809,1.812-8.907,3.003-13.282c0.231-0.784,0.969-1.198,1.843-1.198c1.149,0,2.394,0.784,2.394,2.348
	c0,2.439-3.821,13.53-3.821,17.073c0,0.967,0.231,1.52,0.829,1.52c1.585,0,3.882-4.813,4.604-6.3
	c0.704-3.725,1.628-7.286,2.989-11.924c0.231-0.829,0.966-1.196,1.704-1.196c1.104,0,2.254,0.782,2.254,2.115
	c0,1.198-0.782,3.083-1.058,4.279c1.887-4.325,4.233-7.684,6.627-7.684c2.714,0,3.403,2.483,3.403,4.187
	c0,5.197-4.464,13.159-4.464,15.966c0,0.597,0.231,0.964,0.737,0.964c2.019,0,5.174-6.034,5.745-6.987
	c0.981-6.546,4.579-14.064,9.073-14.064c1.891,0,2.9,2.38,2.992,3.38h0.323c1.149,0,2.577,0.993,2.577,2.788
	c0,1.747-0.83,4.812-2.622,14.291c2.023-1.656,3.815-3.729,5.104-6.394c0.234-0.507,0.554-0.738,0.785-0.738
	C186.822,24.085,186.96,24.223,186.96,24.544z M95.882,24.912c0.138,0.047,0.229,0.047,0.369,0.047c2.715,0,6.627-7.27,6.627-10.861
	c0-0.734-0.092-1.519-0.782-1.519C99.473,12.58,96.435,19.391,95.882,24.912z M74.115,22.657c-0.737-0.044-1.518-0.044-2.254-0.044
	c0.736,1.104,1.242,2.484,1.564,3.958C73.654,25.326,73.838,24.038,74.115,22.657z M117.744,15.205c0-0.785-0.139-1.751-1.244-1.751
	c-3.084,0-5.89,10.769-5.89,15.601c0,1.38,0.231,2.256,0.782,2.256c1.704,0,3.727-4.373,4.876-9.48L117.744,15.205z M135.047,14.882
	c-0.044-0.599-0.275-1.429-1.289-1.429c-3.084,0-5.889,10.769-5.889,15.601c0,1.38,0.231,2.256,0.782,2.256
	c1.839,0,3.635-4.604,5.015-10.123C134.082,19.206,134.543,17.044,135.047,14.882z M175.04,37.798
	c-3.268,2.163-7.086,4.603-7.086,8.054c0,1.059,0.599,2.068,1.659,2.068c1.47,0,3.543-1.884,5.151-8.74L175.04,37.798z
	 M179.46,15.064c-0.048-0.597-0.14-1.611-1.292-1.611c-3.081,0-5.89,10.769-5.89,15.601c0,1.38,0.231,2.256,0.782,2.256
	c2.163,0,4.417-5.937,5.801-13.115L179.46,15.064z"/>
</svg>
